<svg width="80" height="40" viewBox="0 0 80 40" fill="none" xmlns="http://www.w3.org/2000/svg">
<path d="M18.392 21.7108H15.5595L8.83245 10.8964V21.7108H6V6.28916H9.24241L15.5595 16.3518V6.28916H18.392V21.7108Z" fill="white"/>
<path d="M37.3886 14C37.3886 15.1052 37.1774 16.1462 36.755 17.1229C36.345 18.0996 35.7798 18.9478 35.0593 19.6675C34.3387 20.3871 33.5002 20.959 32.5436 21.3831C31.587 21.7944 30.5683 22 29.4875 22C28.4067 22 27.3818 21.7944 26.4128 21.3831C25.4563 20.959 24.6177 20.3871 23.8972 19.6675C23.1766 18.9478 22.6052 18.106 22.1828 17.1422C21.7728 16.1655 21.5678 15.1181 21.5678 14C21.5678 12.8819 21.7728 11.8345 22.1828 10.8578C22.6052 9.88112 23.1766 9.03293 23.8972 8.31325C24.6177 7.59357 25.4563 7.02811 26.4128 6.61687C27.3818 6.20562 28.4067 6 29.4875 6C30.5683 6 31.587 6.20562 32.5436 6.61687C33.5002 7.02811 34.3387 7.6 35.0593 8.33253C35.7798 9.05221 36.345 9.9004 36.755 10.8771C37.1774 11.841 37.3886 12.8819 37.3886 14ZM34.4816 14C34.4816 13.2932 34.3511 12.6313 34.0903 12.0145C33.8294 11.3847 33.4691 10.8386 33.0095 10.3759C32.5622 9.9004 32.0342 9.52771 31.4255 9.25783C30.8168 8.9751 30.1708 8.83373 29.4875 8.83373C28.7918 8.83373 28.1396 8.9751 27.5309 9.25783C26.9222 9.52771 26.388 9.9004 25.9283 10.3759C25.4811 10.8386 25.127 11.3847 24.8662 12.0145C24.6053 12.6313 24.4748 13.2932 24.4748 14C24.4748 14.694 24.6053 15.3558 24.8662 15.9855C25.127 16.6153 25.4811 17.1679 25.9283 17.6434C26.388 18.106 26.9222 18.4787 27.5309 18.7614C28.1396 19.0313 28.7918 19.1663 29.4875 19.1663C30.1708 19.1663 30.8168 19.0313 31.4255 18.7614C32.0342 18.4787 32.5622 18.106 33.0095 17.6434C33.4691 17.1679 33.8294 16.6153 34.0903 15.9855C34.3511 15.3558 34.4816 14.694 34.4816 14Z" fill="white"/>
<path d="M55.4352 21.7108H52.6028V11.4169L47.9069 19.6096L43.3973 11.3398V21.7108H40.5649V6.28916H43.8259L47.9628 13.9422L52.286 6.28916H55.4352V21.7108Z" fill="white"/>
<path d="M74.4284 14C74.4284 15.1052 74.2172 16.1462 73.7948 17.1229C73.3848 18.0996 72.8196 18.9478 72.099 19.6675C71.3785 20.3871 70.5399 20.959 69.5834 21.3831C68.6268 21.7944 67.6081 22 66.5273 22C65.4465 22 64.4216 21.7944 63.4526 21.3831C62.496 20.959 61.6575 20.3871 60.937 19.6675C60.2164 18.9478 59.645 18.106 59.2226 17.1422C58.8126 16.1655 58.6076 15.1181 58.6076 14C58.6076 12.8819 58.8126 11.8345 59.2226 10.8578C59.645 9.88112 60.2164 9.03293 60.937 8.31325C61.6575 7.59357 62.496 7.02811 63.4526 6.61687C64.4216 6.20562 65.4465 6 66.5273 6C67.6081 6 68.6268 6.20562 69.5834 6.61687C70.5399 7.02811 71.3785 7.6 72.099 8.33253C72.8196 9.05221 73.3848 9.9004 73.7948 10.8771C74.2172 11.841 74.4284 12.8819 74.4284 14ZM71.5214 14C71.5214 13.2932 71.3909 12.6313 71.13 12.0145C70.8692 11.3847 70.5089 10.8386 70.0492 10.3759C69.602 9.9004 69.074 9.52771 68.4653 9.25783C67.8566 8.9751 67.2106 8.83373 66.5273 8.83373C65.8316 8.83373 65.1794 8.9751 64.5707 9.25783C63.962 9.52771 63.4278 9.9004 62.9681 10.3759C62.5209 10.8386 62.1668 11.3847 61.9059 12.0145C61.6451 12.6313 61.5146 13.2932 61.5146 14C61.5146 14.694 61.6451 15.3558 61.9059 15.9855C62.1668 16.6153 62.5209 17.1679 62.9681 17.6434C63.4278 18.106 63.962 18.4787 64.5707 18.7614C65.1794 19.0313 65.8316 19.1663 66.5273 19.1663C67.2106 19.1663 67.8566 19.0313 68.4653 18.7614C69.074 18.4787 69.602 18.106 70.0492 17.6434C70.5089 17.1679 70.8692 16.6153 71.13 15.9855C71.3909 15.3558 71.5214 14.694 71.5214 14Z" fill="white"/>
<path d="M7.754 28.383H8.132L8.501 27.87C8.543 27.804 8.591 27.771 8.645 27.771C8.705 27.771 8.849 27.885 9.077 28.113C9.311 28.335 9.428 28.482 9.428 28.554C9.428 28.626 9.383 28.662 9.293 28.662H7.754V29.778C8.18 29.898 8.513 30.027 8.753 30.165C8.993 30.303 9.113 30.477 9.113 30.687C9.113 30.897 9.062 31.074 8.96 31.218C8.864 31.356 8.771 31.425 8.681 31.425C8.597 31.425 8.537 31.407 8.501 31.371C8.471 31.335 8.438 31.26 8.402 31.146C8.234 30.606 8.018 30.204 7.754 29.94V34.044C7.754 34.098 7.727 34.143 7.673 34.179C7.625 34.215 7.517 34.266 7.349 34.332C7.181 34.404 7.076 34.44 7.034 34.44C6.998 34.44 6.98 34.407 6.98 34.341L6.989 33.918C7.001 33.63 7.007 33.369 7.007 33.135V30.534C6.611 31.494 6.047 32.325 5.315 33.027L5.189 32.928C6.005 31.584 6.566 30.162 6.872 28.662H6.089C5.933 28.662 5.804 28.677 5.702 28.707L5.549 28.338C5.675 28.368 5.825 28.383 5.999 28.383H7.007V27.141C7.007 26.745 6.998 26.403 6.98 26.115C7.412 26.241 7.715 26.337 7.889 26.403C8.063 26.469 8.15 26.523 8.15 26.565C8.15 26.619 8.018 26.712 7.754 26.844V28.383ZM10.427 27.141H12.263L12.524 26.754C12.566 26.694 12.605 26.664 12.641 26.664C12.677 26.664 12.758 26.709 12.884 26.799C13.01 26.889 13.142 26.991 13.28 27.105C13.424 27.213 13.496 27.282 13.496 27.312C13.496 27.366 13.382 27.462 13.154 27.6V33.153C13.154 33.465 13.157 33.669 13.163 33.765L13.172 34.017C13.172 34.041 13.169 34.059 13.163 34.071C13.157 34.089 13.097 34.134 12.983 34.206C12.875 34.278 12.752 34.338 12.614 34.386C12.476 34.44 12.392 34.467 12.362 34.467C12.338 34.467 12.326 34.431 12.326 34.359V33.486H10.328V34.026C10.328 34.08 10.322 34.116 10.31 34.134C10.298 34.152 10.247 34.185 10.157 34.233C10.073 34.287 9.95 34.341 9.788 34.395C9.632 34.449 9.542 34.476 9.518 34.476C9.5 34.476 9.494 34.446 9.5 34.386C9.53 34.092 9.545 33.792 9.545 33.486V27.465C9.545 27.213 9.536 26.958 9.518 26.7C9.89 26.844 10.193 26.991 10.427 27.141ZM12.326 29.166V27.438H10.328V29.166H12.326ZM12.326 31.173V29.454H10.328V31.173H12.326ZM12.326 33.198V31.461H10.328V33.198H12.326ZM22.667 28.329H23.045L23.351 27.816C23.405 27.732 23.456 27.69 23.504 27.69C23.558 27.69 23.699 27.813 23.927 28.059C24.155 28.299 24.269 28.455 24.269 28.527C24.269 28.593 24.203 28.626 24.071 28.626H22.667V29.562C23.129 29.676 23.474 29.802 23.702 29.94C23.93 30.072 24.044 30.225 24.044 30.399C24.044 30.567 23.999 30.72 23.909 30.858C23.825 30.99 23.723 31.056 23.603 31.056C23.555 31.056 23.516 31.038 23.486 31.002C23.462 30.966 23.429 30.903 23.387 30.813C23.177 30.357 22.937 30.006 22.667 29.76V33.945C22.667 34.041 22.643 34.107 22.595 34.143C22.547 34.185 22.439 34.239 22.271 34.305C22.109 34.371 22.001 34.404 21.947 34.404C21.899 34.404 21.875 34.368 21.875 34.296L21.893 33.801C21.899 33.597 21.902 33.369 21.902 33.117V30.444C21.5 31.134 20.936 31.839 20.21 32.559L20.066 32.415C20.528 31.791 20.879 31.194 21.119 30.624C21.365 30.054 21.578 29.388 21.758 28.626H20.876C20.72 28.626 20.591 28.641 20.489 28.671L20.336 28.284C20.462 28.314 20.612 28.329 20.786 28.329H21.902V27.24C21.902 26.844 21.893 26.502 21.875 26.214C22.613 26.382 22.982 26.514 22.982 26.61C22.982 26.664 22.877 26.748 22.667 26.862V28.329ZM25.268 27.276C25.274 27.924 25.262 28.668 25.232 29.508C25.202 30.348 25.166 30.918 25.124 31.218C25.082 31.518 25.01 31.803 24.908 32.073C24.806 32.337 24.668 32.589 24.494 32.829C24.326 33.063 24.113 33.297 23.855 33.531C23.603 33.771 23.291 34.032 22.919 34.314L22.793 34.143C23.303 33.645 23.678 33.18 23.918 32.748C24.158 32.316 24.314 31.83 24.386 31.29C24.464 30.75 24.503 29.964 24.503 28.932C24.503 27.894 24.479 27.102 24.431 26.556C24.761 26.646 25.097 26.784 25.439 26.97H26.087L26.348 26.574C26.39 26.508 26.435 26.475 26.483 26.475C26.525 26.475 26.63 26.532 26.798 26.646C26.966 26.76 27.101 26.859 27.203 26.943C27.305 27.027 27.356 27.099 27.356 27.159C27.356 27.219 27.218 27.333 26.942 27.501V32.982C26.942 33.072 26.972 33.126 27.032 33.144C27.092 33.162 27.263 33.171 27.545 33.171C27.683 33.171 27.779 33.138 27.833 33.072C27.893 33.012 27.944 32.859 27.986 32.613C28.034 32.361 28.1 31.884 28.184 31.182H28.427C28.397 31.596 28.382 31.929 28.382 32.181C28.382 32.427 28.4 32.625 28.436 32.775C28.478 32.919 28.577 33.036 28.733 33.126C28.793 33.168 28.823 33.21 28.823 33.252C28.823 33.3 28.769 33.408 28.661 33.576C28.553 33.75 28.424 33.858 28.274 33.9C28.13 33.948 27.833 33.972 27.383 33.972C26.933 33.972 26.612 33.936 26.42 33.864C26.234 33.798 26.141 33.624 26.141 33.342V27.276H25.268ZM40.676 30.12V29.166C40.676 28.902 40.667 28.653 40.649 28.419C40.877 28.467 41.081 28.515 41.261 28.563C41.447 28.611 41.558 28.644 41.594 28.662C41.63 28.68 41.648 28.71 41.648 28.752C41.648 28.788 41.573 28.845 41.423 28.923V30.12H41.999L42.359 29.652C42.401 29.592 42.446 29.562 42.494 29.562C42.542 29.562 42.65 29.628 42.818 29.76L43.232 30.093C43.346 30.183 43.403 30.261 43.403 30.327C43.403 30.387 43.34 30.417 43.214 30.417H41.423V33.612C41.423 33.816 41.378 33.957 41.288 34.035C41.204 34.119 41.072 34.191 40.892 34.251C40.712 34.317 40.589 34.35 40.523 34.35C40.457 34.35 40.418 34.308 40.406 34.224C40.37 34.038 40.292 33.897 40.172 33.801C40.052 33.711 39.797 33.612 39.407 33.504L39.425 33.333C39.881 33.387 40.184 33.414 40.334 33.414C40.49 33.414 40.586 33.399 40.622 33.369C40.658 33.339 40.676 33.288 40.676 33.216V30.417H39.488C39.392 30.561 39.317 30.633 39.263 30.633C39.215 30.633 39.089 30.564 38.885 30.426C38.681 30.288 38.558 30.195 38.516 30.147C38.636 30.087 38.729 30.03 38.795 29.976C38.861 29.916 38.918 29.841 38.966 29.751C39.014 29.661 39.116 29.424 39.272 29.04C39.434 28.656 39.578 28.278 39.704 27.906H38.984C38.822 27.906 38.696 27.927 38.606 27.969L38.444 27.6C38.57 27.63 38.72 27.645 38.894 27.645H39.794C39.968 27.099 40.106 26.592 40.208 26.124C40.388 26.178 40.595 26.25 40.829 26.34C41.063 26.43 41.198 26.487 41.234 26.511C41.27 26.529 41.288 26.559 41.288 26.601C41.288 26.637 41.231 26.67 41.117 26.7C41.003 26.73 40.919 26.811 40.865 26.943L40.568 27.645H42.071L42.449 27.069C42.491 27.009 42.527 26.979 42.557 26.979C42.605 26.979 42.77 27.105 43.052 27.357C43.34 27.603 43.484 27.756 43.484 27.816C43.484 27.876 43.427 27.906 43.313 27.906H40.46L39.542 30.12H40.676ZM36.68 26.799H37.616L37.823 26.457C37.859 26.409 37.895 26.385 37.931 26.385C37.973 26.385 38.126 26.478 38.39 26.664C38.66 26.844 38.795 26.952 38.795 26.988C38.795 27.024 38.75 27.057 38.66 27.087C38.576 27.117 38.504 27.162 38.444 27.222C38.39 27.282 38.252 27.492 38.03 27.852C37.808 28.206 37.55 28.641 37.256 29.157C37.664 29.397 37.967 29.643 38.165 29.895C38.363 30.147 38.462 30.471 38.462 30.867C38.462 31.359 38.324 31.701 38.048 31.893C37.778 32.085 37.601 32.181 37.517 32.181C37.439 32.181 37.397 32.133 37.391 32.037C37.385 31.869 37.322 31.734 37.202 31.632C37.088 31.53 36.908 31.446 36.662 31.38V31.227C36.872 31.257 37.058 31.272 37.22 31.272C37.388 31.272 37.514 31.236 37.598 31.164C37.682 31.092 37.724 30.945 37.724 30.723C37.724 30.501 37.658 30.243 37.526 29.949C37.394 29.649 37.214 29.403 36.986 29.211C37.34 28.203 37.565 27.48 37.661 27.042H36.554V33.99C36.554 34.062 36.533 34.11 36.491 34.134C36.449 34.164 36.344 34.209 36.176 34.269C36.008 34.329 35.903 34.359 35.861 34.359C35.825 34.359 35.807 34.341 35.807 34.305L35.825 33.882C35.837 33.702 35.843 33.426 35.843 33.054V27.321C35.843 26.889 35.831 26.574 35.807 26.376C36.179 26.532 36.47 26.673 36.68 26.799ZM39.461 30.867C39.689 30.993 39.881 31.107 40.037 31.209C40.199 31.311 40.289 31.374 40.307 31.398C40.325 31.422 40.334 31.449 40.334 31.479C40.334 31.545 40.283 31.578 40.181 31.578C40.145 31.578 40.1 31.593 40.046 31.623C39.992 31.647 39.956 31.674 39.938 31.704C39.38 32.412 38.96 32.886 38.678 33.126C38.402 33.366 38.051 33.621 37.625 33.891L37.508 33.765C37.934 33.345 38.291 32.922 38.579 32.496C38.873 32.064 39.167 31.521 39.461 30.867ZM41.747 30.876C42.845 31.644 43.394 32.253 43.394 32.703C43.394 32.925 43.343 33.099 43.241 33.225C43.145 33.357 43.028 33.423 42.89 33.423C42.824 33.423 42.776 33.399 42.746 33.351C42.716 33.309 42.689 33.243 42.665 33.153C42.491 32.517 42.323 32.052 42.161 31.758C42.005 31.464 41.834 31.209 41.648 30.993L41.747 30.876ZM57.137 26.259C57.359 26.301 57.575 26.352 57.785 26.412C58.001 26.472 58.136 26.514 58.19 26.538C58.244 26.562 58.271 26.595 58.271 26.637C58.271 26.679 58.163 26.757 57.947 26.871V33.225C57.947 33.555 57.89 33.786 57.776 33.918C57.668 34.05 57.497 34.164 57.263 34.26C57.035 34.356 56.888 34.404 56.822 34.404C56.762 34.404 56.726 34.356 56.714 34.26C56.69 34.092 56.642 33.96 56.57 33.864C56.504 33.768 56.384 33.678 56.21 33.594C56.036 33.516 55.772 33.426 55.418 33.324L55.463 33.153C56.135 33.285 56.552 33.351 56.714 33.351C56.882 33.351 56.996 33.327 57.056 33.279C57.122 33.237 57.155 33.123 57.155 32.937V27.06C57.155 26.76 57.149 26.493 57.137 26.259ZM52.43 29.094C52.328 29.298 52.223 29.49 52.115 29.67C52.379 29.898 52.58 30.129 52.718 30.363C52.862 30.591 52.934 30.789 52.934 30.957C52.934 31.119 52.88 31.26 52.772 31.38C52.664 31.5 52.535 31.56 52.385 31.56C52.235 31.56 52.16 31.476 52.16 31.308C52.16 31.254 52.169 31.173 52.187 31.065C52.205 30.957 52.214 30.849 52.214 30.741C52.214 30.453 52.145 30.15 52.007 29.832C51.629 30.444 51.071 31.107 50.333 31.821L50.198 31.695C50.75 30.975 51.188 30.276 51.512 29.598C51.836 28.92 52.106 28.125 52.322 27.213H50.891C50.735 27.213 50.606 27.228 50.504 27.258L50.351 26.889C50.477 26.919 50.627 26.934 50.801 26.934H53.951L54.356 26.466C54.416 26.4 54.467 26.367 54.509 26.367C54.551 26.367 54.632 26.418 54.752 26.52L55.157 26.871C55.307 26.997 55.382 27.087 55.382 27.141C55.382 27.189 55.316 27.213 55.184 27.213H53.204C53.006 27.807 52.796 28.338 52.574 28.806H53.6L53.825 28.5C53.867 28.446 53.909 28.419 53.951 28.419C53.999 28.419 54.116 28.47 54.302 28.572C54.494 28.668 54.635 28.743 54.725 28.797C54.821 28.851 54.869 28.902 54.869 28.95C54.869 28.992 54.821 29.037 54.725 29.085C54.635 29.127 54.572 29.175 54.536 29.229C54.5 29.283 54.464 29.388 54.428 29.544C54.224 30.408 53.975 31.11 53.681 31.65C53.387 32.19 52.973 32.658 52.439 33.054C51.911 33.45 51.185 33.819 50.261 34.161L50.216 34.026C51.29 33.426 52.109 32.727 52.673 31.929C53.237 31.125 53.579 30.18 53.699 29.094H52.43ZM55.418 27.519C56.06 27.669 56.381 27.795 56.381 27.897C56.381 27.951 56.309 28.005 56.165 28.059V30.993L56.183 31.785C56.183 31.851 56.165 31.899 56.129 31.929C56.099 31.953 56.003 31.989 55.841 32.037C55.685 32.085 55.565 32.109 55.481 32.109C55.439 32.109 55.418 32.064 55.418 31.974L55.436 30.939V28.239C55.436 27.969 55.43 27.729 55.418 27.519ZM66.398 28.113C66.068 28.803 65.66 29.427 65.174 29.985L65.021 29.859C65.633 28.809 66.065 27.558 66.317 26.106C66.779 26.274 67.058 26.385 67.154 26.439C67.256 26.493 67.307 26.541 67.307 26.583C67.307 26.625 67.253 26.664 67.145 26.7C67.043 26.736 66.956 26.838 66.884 27.006L66.524 27.834H67.478L67.667 27.51C67.709 27.438 67.745 27.402 67.775 27.402C67.811 27.402 67.883 27.444 67.991 27.528C68.099 27.612 68.219 27.711 68.351 27.825C68.483 27.939 68.549 28.017 68.549 28.059C68.549 28.101 68.477 28.131 68.333 28.149C68.189 28.161 68.06 28.218 67.946 28.32C67.832 28.422 67.634 28.674 67.352 29.076L67.19 29.013C67.352 28.581 67.445 28.281 67.469 28.113H66.398ZM70.7 27.627C70.502 26.943 70.265 26.481 69.989 26.241L70.052 26.106C70.286 26.172 70.517 26.265 70.745 26.385C70.979 26.499 71.132 26.604 71.204 26.7C71.276 26.79 71.312 26.895 71.312 27.015C71.312 27.129 71.273 27.243 71.195 27.357C71.117 27.471 71.009 27.561 70.871 27.627H72.347L72.626 27.258C72.674 27.198 72.716 27.168 72.752 27.168C72.794 27.168 72.851 27.201 72.923 27.267C73.001 27.333 73.106 27.432 73.238 27.564C73.37 27.696 73.46 27.795 73.508 27.861C73.556 27.921 73.58 27.978 73.58 28.032C73.58 28.08 73.559 28.116 73.517 28.14C73.481 28.158 73.391 28.167 73.247 28.167C73.109 28.167 72.953 28.218 72.779 28.32C72.605 28.422 72.401 28.578 72.167 28.788C72.413 28.944 72.536 29.052 72.536 29.112C72.536 29.166 72.437 29.238 72.239 29.328V29.805C72.239 30.093 72.242 30.297 72.248 30.417L72.257 30.759C72.257 30.807 72.236 30.843 72.194 30.867C72.152 30.891 72.05 30.924 71.888 30.966C71.732 31.008 71.618 31.029 71.546 31.029C71.51 31.029 71.492 30.996 71.492 30.93V30.588H69.683V31.623H71.681L71.906 31.326C71.948 31.272 71.987 31.245 72.023 31.245C72.059 31.245 72.2 31.323 72.446 31.479C72.692 31.635 72.815 31.746 72.815 31.812C72.815 31.896 72.704 31.962 72.482 32.01V33.072L72.5 34.008C72.5 34.044 72.491 34.068 72.473 34.08C72.461 34.098 72.407 34.131 72.311 34.179C72.221 34.233 72.119 34.275 72.005 34.305C71.897 34.341 71.825 34.359 71.789 34.359C71.759 34.359 71.744 34.314 71.744 34.224V33.531H69.683V34.233C69.683 34.299 69.656 34.347 69.602 34.377C69.554 34.413 69.458 34.452 69.314 34.494C69.17 34.542 69.059 34.566 68.981 34.566C68.945 34.566 68.927 34.554 68.927 34.53C68.927 34.506 68.933 34.374 68.945 34.134C68.963 33.894 68.972 33.483 68.972 32.901V29.787C68.972 29.535 68.966 29.22 68.954 28.842C68.804 29.124 68.612 29.265 68.378 29.265C68.27 29.265 68.18 29.235 68.108 29.175C68.042 29.115 68.009 29.04 68.009 28.95C68.009 28.812 68.096 28.677 68.27 28.545C68.606 28.293 68.816 27.852 68.9 27.222H69.08C69.104 27.42 69.119 27.555 69.125 27.627H70.7ZM71.96 28.653C72.182 28.305 72.314 28.053 72.356 27.897H69.152C69.164 28.161 69.14 28.383 69.08 28.563C69.344 28.683 69.581 28.809 69.791 28.941H71.42L71.618 28.626C71.66 28.56 71.702 28.527 71.744 28.527C71.786 28.527 71.858 28.569 71.96 28.653ZM69.683 30.3H71.492V29.22H69.683V30.3ZM69.683 33.261H71.744V31.893H69.683V33.261ZM66.335 32.739V29.85C66.335 29.544 66.326 29.262 66.308 29.004C66.734 29.106 67.001 29.181 67.109 29.229C67.223 29.277 67.28 29.328 67.28 29.382C67.28 29.43 67.199 29.511 67.037 29.625V32.802L68.585 31.479L68.738 31.614C68 32.466 67.514 33.039 67.28 33.333C67.052 33.633 66.887 33.888 66.785 34.098C66.749 34.17 66.716 34.206 66.686 34.206C66.662 34.206 66.635 34.194 66.605 34.17C66.581 34.152 66.494 34.065 66.344 33.909C66.2 33.753 66.065 33.603 65.939 33.459C66.059 33.345 66.155 33.219 66.227 33.081C66.299 32.943 66.335 32.829 66.335 32.739Z" fill="white"/>
</svg>
