<svg width="32" height="32" viewBox="0 0 32 32" fill="none" xmlns="http://www.w3.org/2000/svg">
<circle cx="16" cy="16" r="16" fill="white"/>
<path d="M22.7322 16.4363C22.3769 15.6313 21.7067 14.992 20.9285 14.5983C19.5554 13.9029 17.8479 13.907 16.4783 14.6158C15.5269 15.104 14.7324 15.979 14.5072 17.0436C14.3217 17.8276 14.4879 18.6717 14.9039 19.3542C15.5228 20.382 16.6416 21.0383 17.8036 21.2488C18.6454 21.4198 19.5163 21.3183 20.3341 21.0826C20.8253 21.2728 21.2628 21.5808 21.7388 21.8094C21.6157 21.397 21.4844 20.9893 21.3444 20.5833C21.8788 20.2041 22.3629 19.731 22.6534 19.1372C23.0874 18.3118 23.1137 17.2874 22.7322 16.4363V16.4363ZM16.9432 10.9145C15.4878 10.0955 13.6754 9.97242 12.1097 10.5383C11.0807 10.9087 10.1497 11.597 9.57453 12.5333C9.05245 13.3791 8.85703 14.4338 9.10845 15.4015C9.36103 16.4748 10.1065 17.3749 11.0113 17.9758C10.8363 18.4716 10.67 18.9668 10.5125 19.4662C11.0813 19.1687 11.65 18.8578 12.2194 18.5556C12.9019 18.7743 13.6281 18.8817 14.3544 18.8578C14.1619 18.3077 14.1181 17.7115 14.2056 17.1363C14.3369 16.3366 14.7744 15.6051 15.3688 15.0632C16.3756 14.1211 17.8019 13.7238 19.1581 13.8201C18.9038 12.5747 18.0288 11.5223 16.9274 10.9151H16.9432V10.9145ZM17.9541 16.7414C17.8322 17.1218 17.2798 17.2361 17.012 16.9468C16.7169 16.679 16.8318 16.1196 17.2191 16C17.6473 15.8192 18.1419 16.3133 17.9541 16.7414ZM20.7512 16.7951C20.6019 17.1369 20.0856 17.2168 19.8319 16.9526C19.7099 16.8412 19.6744 16.6732 19.6312 16.5268C19.6919 16.2596 19.8762 15.9825 20.1737 15.9697C20.5849 15.9125 20.953 16.4206 20.7424 16.7957H20.7512V16.7951ZM16.5774 13.0303C16.5821 13.5908 15.8337 13.9408 15.4137 13.5605C14.9779 13.2484 15.1016 12.4889 15.6132 12.332C16.0711 12.1483 16.6124 12.5327 16.5763 13.0233L16.5774 13.0303V13.0303ZM13.043 13.1726C12.9427 13.6597 12.2899 13.8948 11.9079 13.5681C11.4651 13.256 11.5894 12.4825 12.1091 12.325C12.6184 12.129 13.197 12.6458 13.043 13.1726Z" fill="#8E8787"/>
</svg>
