<svg width="32" height="32" viewBox="0 0 32 32" fill="none" xmlns="http://www.w3.org/2000/svg">
<circle cx="16" cy="16" r="16" fill="white"/>
<path d="M23 12.1837C22.5221 12.3848 22.0078 12.5205 21.4681 12.5812C22.0191 12.2689 22.4416 11.7743 22.6408 11.1843C22.1255 11.4738 21.5549 11.6839 20.9472 11.7973C20.4609 11.3067 19.7676 11 19.0005 11C17.5277 11 16.3336 12.1303 16.3336 13.5246C16.3336 13.7222 16.3571 13.9148 16.4028 14.0999C14.1861 13.9945 12.2206 12.9896 10.9051 11.4621C10.6756 11.8348 10.5441 12.2684 10.5441 12.7315C10.5441 13.6073 11.0149 14.3801 11.7306 14.8327C11.2936 14.8195 10.8822 14.7059 10.5225 14.5168C10.5222 14.5273 10.5222 14.538 10.5222 14.5487C10.5222 15.7717 11.4416 16.7918 12.6619 17.0241C12.4381 17.0816 12.2024 17.1126 11.9591 17.1126C11.7871 17.1126 11.62 17.0968 11.4572 17.0671C11.7968 18.07 12.7817 18.8001 13.9486 18.8204C13.0358 19.4975 11.886 19.9012 10.6362 19.9012C10.4212 19.9012 10.2087 19.8892 10 19.8657C11.1806 20.5824 12.5824 21 14.0884 21C18.9944 21 21.6769 17.1533 21.6769 13.8171C21.6769 13.7077 21.6745 13.5985 21.6695 13.4901C22.1904 13.1349 22.6427 12.6901 23 12.1837Z" fill="#8E8787"/>
</svg>
