<svg width="32" height="32" viewBox="0 0 32 32" fill="none" xmlns="http://www.w3.org/2000/svg">
<circle cx="16" cy="16" r="16" fill="white"/>
<path d="M19.4193 9.00824C19.2381 9.02073 19.0476 9.04572 18.8696 9.0832C18.5385 9.15504 18.323 9.47988 18.3948 9.80784C18.4635 10.1389 18.7883 10.3544 19.1194 10.2826C20.1377 10.0671 21.2465 10.3826 21.993 11.2071C22.7395 12.0348 22.9363 13.1655 22.6177 14.1557C22.5146 14.4774 22.6958 14.8272 23.0175 14.9303C23.3392 15.0333 23.6859 14.8522 23.7921 14.5305C24.2419 13.1374 23.967 11.5695 22.9175 10.4075C22.1304 9.53298 21.031 9.05822 19.944 9.00824C19.7629 8.99887 19.6004 8.99575 19.4193 9.00824ZM14.4468 10.8323C13.3317 10.951 11.7575 11.8225 10.3738 13.2061C8.86519 14.7148 8 16.3202 8 17.7039C8 20.3494 11.3796 21.9518 14.6966 21.9518C19.0445 21.9518 21.943 19.4093 21.943 17.404C21.943 16.1921 20.9373 15.5144 20.019 15.2301C19.7941 15.1614 19.6254 15.1271 19.7441 14.8303C20.0002 14.1869 20.0471 13.6278 19.7691 13.2311C19.2506 12.4877 17.7982 12.5252 16.1709 13.2061C16.1709 13.2061 15.6649 13.4373 15.7961 13.0312C16.046 12.2254 16.0116 11.5476 15.6212 11.1572C15.3463 10.8792 14.9528 10.7792 14.4468 10.8323ZM19.8441 11.1572C19.666 11.1478 19.4942 11.1697 19.3193 11.2071C19.0351 11.2665 18.8571 11.5726 18.9195 11.8568C18.982 12.141 19.26 12.3191 19.5442 12.2566C19.8847 12.1848 20.2689 12.2785 20.5187 12.5565C20.7686 12.8344 20.828 13.1999 20.7186 13.531C20.6281 13.809 20.7655 14.1151 21.0435 14.2056C21.3215 14.2931 21.6307 14.1588 21.7181 13.8808C21.9368 13.203 21.8056 12.4253 21.2933 11.8568C20.9092 11.432 20.3751 11.1822 19.8441 11.1572ZM15.0465 14.6804C17.261 14.7585 19.0445 15.8579 19.1944 17.379C19.3662 19.1188 17.3703 20.7399 14.7216 21.0022C12.073 21.2646 9.77099 20.0652 9.5992 18.3286C9.42741 16.5888 11.4514 14.9678 14.0969 14.7054C14.428 14.6742 14.731 14.6679 15.0465 14.6804ZM13.5472 16.3546C12.6414 16.4358 11.7856 16.9543 11.3983 17.7039C10.8704 18.7252 11.3921 19.8559 12.5977 20.2276C13.8439 20.6118 15.3088 20.0308 15.8211 18.9283C16.324 17.8507 15.6805 16.7325 14.4468 16.4295C14.15 16.3546 13.8502 16.3265 13.5472 16.3546ZM12.9725 18.0037C13.0787 18.0069 13.1755 18.0412 13.2724 18.0787C13.6628 18.238 13.7846 18.6565 13.5472 19.0282C13.3036 19.3968 12.7882 19.5748 12.3978 19.403C12.0136 19.2344 11.9043 18.8127 12.1479 18.4535C12.3291 18.1849 12.657 18.0006 12.9725 18.0037Z" fill="#8E8787"/>
</svg>
