<svg width="24" height="24" viewBox="0 0 24 24" fill="none" xmlns="http://www.w3.org/2000/svg">
<circle cx="12" cy="12" r="12" fill="#00DF6C"/>
<path d="M17.0492 12.3272C16.7828 11.7235 16.2801 11.244 15.6964 10.9487C14.6666 10.4272 13.386 10.4302 12.3588 10.9618C11.6452 11.328 11.0493 11.9842 10.8804 12.7827C10.7413 13.3707 10.866 14.0037 11.1779 14.5156C11.6421 15.2865 12.4813 15.7787 13.3528 15.9366C13.9841 16.0648 14.6373 15.9887 15.2506 15.8119C15.619 15.9546 15.9471 16.1856 16.3041 16.3571C16.2118 16.0477 16.1134 15.7419 16.0084 15.4374C16.4091 15.1531 16.7723 14.7983 16.9901 14.3529C17.3156 13.7338 17.3353 12.9656 17.0492 12.3272ZM12.7074 8.18587C11.6159 7.57162 10.2566 7.47931 9.08232 7.90369C8.31057 8.1815 7.61232 8.69775 7.18095 9.39994C6.78938 10.0343 6.64282 10.8253 6.83138 11.5511C7.02082 12.3561 7.57995 13.0312 8.25851 13.4818C8.12726 13.8537 8.00257 14.2251 7.88445 14.5996C8.31101 14.3765 8.73757 14.1433 9.16457 13.9167C9.67645 14.0807 10.2211 14.1613 10.7658 14.1433C10.6214 13.7307 10.5886 13.2836 10.6543 12.8522C10.7527 12.2524 11.0808 11.7038 11.5266 11.2974C12.2818 10.5908 13.3514 10.2929 14.3686 10.3651C14.1779 9.431 13.5216 8.64175 12.6956 8.18631H12.7074V8.18587ZM13.4656 12.5561C13.3742 12.8413 12.9599 12.9271 12.7591 12.7101C12.5377 12.5092 12.6239 12.0897 12.9144 12C13.2355 11.8644 13.6065 12.2349 13.4656 12.5561ZM15.5634 12.5963C15.4514 12.8527 15.0643 12.9126 14.8739 12.7144C14.7825 12.6309 14.7558 12.5049 14.7234 12.3951C14.7689 12.1947 14.9072 11.9869 15.1303 11.9772C15.4388 11.9344 15.7148 12.3154 15.5569 12.5967H15.5634V12.5963ZM12.4331 9.77269C12.4366 10.1931 11.8753 10.4556 11.5603 10.1704C11.2335 9.93631 11.3263 9.36669 11.7099 9.249C12.0534 9.11119 12.4594 9.3995 12.4323 9.76744L12.4331 9.77269ZM9.78232 9.87944C9.70707 10.2447 9.21751 10.4211 8.93095 10.1761C8.59888 9.942 8.69207 9.36187 9.08188 9.24375C9.46382 9.09675 9.89782 9.48437 9.78232 9.87944Z" fill="white"/>
</svg>
