<svg width="24" height="24" viewBox="0 0 24 24" fill="none" xmlns="http://www.w3.org/2000/svg">
<circle cx="12" cy="12" r="12" fill="#E6172D"/>
<path d="M14.2439 7.50573C14.125 7.51441 14 7.53177 13.8831 7.55782C13.6659 7.60774 13.5244 7.83346 13.5716 8.06136C13.6167 8.29142 13.8299 8.44118 14.0471 8.39126C14.7153 8.2415 15.443 8.46072 15.9329 9.03371C16.4228 9.60888 16.5519 10.3946 16.3429 11.0826C16.2752 11.3062 16.3941 11.5492 16.6052 11.6209C16.8163 11.6925 17.0439 11.5666 17.1136 11.3431C17.4087 10.375 17.2283 9.28548 16.5396 8.47808C16.0231 7.87036 15.3016 7.54045 14.5883 7.50573C14.4694 7.49921 14.3628 7.49704 14.2439 7.50573ZM10.9807 8.77326C10.2489 8.85574 9.21586 9.46129 8.30781 10.4228C7.31778 11.4711 6.75 12.5867 6.75 13.5482C6.75 15.3866 8.96783 16.5 11.1447 16.5C13.9979 16.5 15.9001 14.7333 15.9001 13.3398C15.9001 12.4977 15.2401 12.0267 14.6375 11.8292C14.4899 11.7815 14.3792 11.7576 14.4571 11.5514C14.6252 11.1043 14.6559 10.7158 14.4735 10.4402C14.1332 9.92359 13.1801 9.94963 12.1122 10.4228C12.1122 10.4228 11.7801 10.5834 11.8662 10.3012C12.0302 9.74127 12.0076 9.27029 11.7514 8.99898C11.571 8.80582 11.3128 8.73636 10.9807 8.77326ZM14.5227 8.99898C14.4058 8.99247 14.2931 9.00767 14.1783 9.03371C13.9918 9.07495 13.8749 9.28765 13.9159 9.48516C13.9569 9.68267 14.1394 9.80639 14.3259 9.76298C14.5493 9.71306 14.8014 9.77817 14.9654 9.97134C15.1294 10.1645 15.1683 10.4184 15.0966 10.6485C15.0372 10.8417 15.1273 11.0544 15.3098 11.1173C15.4922 11.1781 15.6951 11.0848 15.7525 10.8916C15.896 10.4206 15.8099 9.88018 15.4738 9.48516C15.2216 9.18998 14.8711 9.01635 14.5227 8.99898ZM11.3742 11.4472C12.8275 11.5015 13.9979 12.2655 14.0963 13.3225C14.2091 14.5314 12.8993 15.6579 11.1611 15.8402C9.42288 16.0225 7.91221 15.1891 7.79947 13.9823C7.68674 12.7734 9.01498 11.6469 10.7511 11.4646C10.9684 11.4429 11.1672 11.4386 11.3742 11.4472ZM10.3904 12.6106C9.79594 12.667 9.2343 13.0273 8.98013 13.5482C8.63372 14.2579 8.97603 15.0436 9.76724 15.3019C10.5851 15.5689 11.5464 15.1652 11.8826 14.399C12.2126 13.6502 11.7903 12.8732 10.9807 12.6627C10.786 12.6106 10.5892 12.5911 10.3904 12.6106ZM10.0132 13.7566C10.0829 13.7587 10.1464 13.7826 10.21 13.8087C10.4662 13.9194 10.5461 14.2102 10.3904 14.4685C10.2305 14.7246 9.89227 14.8483 9.63605 14.7289C9.38393 14.6117 9.31219 14.3187 9.47207 14.0691C9.59096 13.8825 9.80618 13.7544 10.0132 13.7566Z" fill="white"/>
</svg>
