<svg width="32" height="32" viewBox="0 0 32 32" fill="none" xmlns="http://www.w3.org/2000/svg">
<circle cx="16" cy="16" r="16" fill="white"/>
<path d="M11.0021 15.3773C12.6254 15.3773 14.1514 15.9603 15.2982 17.0207C16.4471 18.0811 17.0796 19.4936 17.0796 20.9971H19.5812C19.5812 16.6299 15.7325 13.0772 11.0021 13.0772V15.3773V15.3773ZM11.006 11.2999C16.7914 11.2999 21.4984 15.6512 21.4984 21H24C24 14.3828 18.1706 9 11.006 9V11.2999V11.2999ZM14.4653 19.3933C14.4653 20.2728 13.6893 20.9863 12.7327 20.9863C11.776 20.9863 11 20.2731 11 19.3933C11 18.5132 11.7757 17.8002 12.7324 17.8002C13.6891 17.8002 14.4653 18.5132 14.4653 19.3933Z" fill="#8E8787"/>
</svg>
