<?xml version="1.0" standalone="no"?><!DOCTYPE svg PUBLIC "-//W3C//DTD SVG 1.1//EN" "http://www.w3.org/Graphics/SVG/1.1/DTD/svg11.dtd"><svg t="1618923745110" class="icon" viewBox="0 0 1024 1024" version="1.1" xmlns="http://www.w3.org/2000/svg" p-id="22259" width="28" height="28" xmlns:xlink="http://www.w3.org/1999/xlink"><defs><style type="text/css"></style></defs><path d="M512 512m-512 0a512 512 0 1 0 1024 0 512 512 0 1 0-1024 0Z" fill="#3399FF" p-id="22260"></path><path d="M679.52 329.76h158.88a34.4 34.4 0 0 1 37.28 30.4 34.4 34.4 0 0 1-37.28 30.4h-158.88v228.8h158.88a34.4 34.4 0 0 1 37.28 30.24 34.4 34.4 0 0 1-37.28 30.4h-158.88v158.72a34.4 34.4 0 0 1-30.4 37.28 34.24 34.24 0 0 1-30.24-37.28V680H390.4v158.72a34.4 34.4 0 0 1-30.4 37.28 34.4 34.4 0 0 1-30.24-37.28V680h-144.96a34.4 34.4 0 0 1-37.28-30.4 34.4 34.4 0 0 1 37.28-30.4h144.96V390.56h-144.96a34.4 34.4 0 0 1-37.28-30.4 34.4 34.4 0 0 1 37.28-30.4h144.96v-144a34.56 34.56 0 0 1 30.24-38.08 34.56 34.56 0 0 1 30.4 37.44v144h228.48v-144a34.4 34.4 0 0 1 30.24-37.44 34.56 34.56 0 0 1 30.4 37.44zM618.88 619.2V390.56H390.4v228.8h228.48z m0 0" fill="#FFFFFF" p-id="22261"></path></svg>