<?xml version="1.0" standalone="no"?><!DOCTYPE svg PUBLIC "-//W3C//DTD SVG 1.1//EN" "http://www.w3.org/Graphics/SVG/1.1/DTD/svg11.dtd"><svg t="1618994733214" class="icon" viewBox="0 0 1329 1024" version="1.1" xmlns="http://www.w3.org/2000/svg" p-id="8307" width="31.1484375" height="24" xmlns:xlink="http://www.w3.org/1999/xlink"><defs><style type="text/css"></style></defs><path d="M152.787302 884.215873c-55.263492-32.507937-71.51746-100.774603-42.260318-156.038095l325.079365-562.387302c32.507937-55.263492 100.774603-71.51746 156.038095-42.260317 55.263492 32.507937 71.51746 100.774603 42.260318 156.038095l-325.079365 562.387302c-29.257143 55.263492-100.774603 71.51746-156.038095 42.260317z" fill="#D94C43" p-id="8308"></path><path d="M731.428571 884.215873c-55.263492-32.507937-71.51746-100.774603-42.260317-156.038095l325.079365-562.387302c32.507937-55.263492 100.774603-71.51746 156.038095-42.260317 55.263492 32.507937 71.51746 100.774603 42.260318 156.038095l-325.079365 562.387302c-32.507937 55.263492-100.774603 71.51746-156.038096 42.260317z" fill="#F5AE36" p-id="8309"></path></svg>