<?xml version="1.0" standalone="no"?><!DOCTYPE svg PUBLIC "-//W3C//DTD SVG 1.1//EN" "http://www.w3.org/Graphics/SVG/1.1/DTD/svg11.dtd"><svg t="1618747527389" class="icon" viewBox="0 0 1024 1024" version="1.1" xmlns="http://www.w3.org/2000/svg" p-id="2785" width="45" height="45" xmlns:xlink="http://www.w3.org/1999/xlink"><defs><style type="text/css"></style></defs><path d="M512 512m-512 0a512 512 0 1 0 1024 0 512 512 0 1 0-1024 0Z" fill="#000000" p-id="2786"></path><path d="M663.134815 531.209481c-0.682667-98.417778 54.613333-100.958815 57.116444-102.53274-31.099259-45.473185-79.511704-52.641185-96.711111-53.285926-41.187556-4.190815-80.365037 23.760593-101.281185 23.760592-20.859259 0-53.115259-23.836444-87.267556-23.229629-44.86637 0.663704-86.281481 26.017185-109.454222 66.218666-46.629926 80.952889-11.946667 200.836741 33.545482 266.42963 22.186667 32.161185 48.696889 68.228741 83.493926 66.958222 33.46963-1.327407 46.155852-21.712593 86.66074-21.712592s51.844741 21.712593 87.324445 20.992c36.010667-0.663704 58.88-32.749037 80.877037-65.005037 25.543111-37.300148 36.02963-71.547259 36.636444-73.386667-0.796444-0.360296-70.276741-39.594667-71.016296-105.206519h0.056889z m-144.384-152.443259A132.247704 132.247704 0 0 1 650.998519 246.518519a132.247704 132.247704 0 0 1-132.247704 132.247703z" fill="#FFFFFF" p-id="2787"></path></svg>